[
  {
    "filePath": "F:\\MemoryCollectionApp\\server\\middleware\\renderEngine\\finals\\interviews_1_65f138c9336de84ab7cb3ed7.mp4",
    "metadata": {
      "streams": [
        {
          "index": 0,
          "codec_name": "aac",
          "codec_long_name": "AAC (Advanced Audio Coding)",
          "profile": "LC",
          "codec_type": "audio",
          "codec_tag_string": "mp4a",
          "codec_tag": "0x6134706d",
          "sample_fmt": "fltp",
          "sample_rate": "44100",
          "channels": 2,
          "channel_layout": "stereo",
          "bits_per_sample": 0,
          "initial_padding": 0,
          "id": "0x1",
          "r_frame_rate": "0/0",
          "avg_frame_rate": "0/0",
          "time_base": "1/44100",
          "start_pts": 0,
          "start_time": "0.000000",
          "duration_ts": 758741,
          "duration": "17.205011",
          "bit_rate": "193891",
          "nb_frames": "742",
          "extradata_size": 5,
          "disposition": {
            "default": 1,
            "dub": 0,
            "original": 0,
            "comment": 0,
            "lyrics": 0,
            "karaoke": 0,
            "forced": 0,
            "hearing_impaired": 0,
            "visual_impaired": 0,
            "clean_effects": 0,
            "attached_pic": 0,
            "timed_thumbnails": 0,
            "non_diegetic": 0,
            "captions": 0,
            "descriptions": 0,
            "metadata": 0,
            "dependent": 0,
            "still_image": 0
          },
          "tags": {
            "language": "und",
            "handler_name": "SoundHandler",
            "vendor_id": "[0][0][0][0]"
          }
        },
        {
          "index": 1,
          "codec_name": "h264",
          "codec_long_name": "H.264 / AVC / MPEG-4 AVC / MPEG-4 part 10",
          "profile": "High",
          "codec_type": "video",
          "codec_tag_string": "avc1",
          "codec_tag": "0x31637661",
          "width": 720,
          "height": 720,
          "coded_width": 720,
          "coded_height": 720,
          "closed_captions": 0,
          "film_grain": 0,
          "has_b_frames": 2,
          "sample_aspect_ratio": "1:1",
          "display_aspect_ratio": "1:1",
          "pix_fmt": "yuv420p",
          "level": 31,
          "color_range": "tv",
          "color_space": "bt709",
          "color_transfer": "bt709",
          "color_primaries": "bt709",
          "chroma_location": "left",
          "field_order": "progressive",
          "refs": 1,
          "is_avc": "true",
          "nal_length_size": "4",
          "id": "0x2",
          "r_frame_rate": "30/1",
          "avg_frame_rate": "30/1",
          "time_base": "1/15360",
          "start_pts": 0,
          "start_time": "0.000000",
          "duration_ts": 264192,
          "duration": "17.200000",
          "bit_rate": "2392064",
          "bits_per_raw_sample": "8",
          "nb_frames": "516",
          "extradata_size": 50,
          "disposition": {
            "default": 1,
            "dub": 0,
            "original": 0,
            "comment": 0,
            "lyrics": 0,
            "karaoke": 0,
            "forced": 0,
            "hearing_impaired": 0,
            "visual_impaired": 0,
            "clean_effects": 0,
            "attached_pic": 0,
            "timed_thumbnails": 0,
            "non_diegetic": 0,
            "captions": 0,
            "descriptions": 0,
            "metadata": 0,
            "dependent": 0,
            "still_image": 0
          },
          "tags": {
            "language": "eng",
            "handler_name": "VideoHandle",
            "vendor_id": "[0][0][0][0]",
            "encoder": "Lavc60.30.102 libx264"
          }
        }
      ],
      "format": {
        "filename": "F:\\MemoryCollectionApp\\server\\middleware\\renderEngine\\finals\\interviews_1_65f138c9336de84ab7cb3ed7.mp4",
        "nb_streams": 2,
        "nb_programs": 0,
        "format_name": "mov,mp4,m4a,3gp,3g2,mj2",
        "format_long_name": "QuickTime / MOV",
        "start_time": "0.000000",
        "duration": "17.205011",
        "size": "5580341",
        "bit_rate": "2594751",
        "probe_score": 100,
        "tags": {
          "major_brand": "isom",
          "minor_version": "512",
          "compatible_brands": "isomiso2avc1mp41",
          "encoder": "Lavf60.15.101"
        }
      }
    }
  },
  {
    "filePath": "F:\\MemoryCollectionApp\\server\\middleware\\renderEngine\\finals\\interviews_3_65f138c9336de84ab7cb3ed7.mp4",
    "metadata": {
      "streams": [
        {
          "index": 0,
          "codec_name": "aac",
          "codec_long_name": "AAC (Advanced Audio Coding)",
          "profile": "LC",
          "codec_type": "audio",
          "codec_tag_string": "mp4a",
          "codec_tag": "0x6134706d",
          "sample_fmt": "fltp",
          "sample_rate": "44100",
          "channels": 2,
          "channel_layout": "stereo",
          "bits_per_sample": 0,
          "initial_padding": 0,
          "id": "0x1",
          "r_frame_rate": "0/0",
          "avg_frame_rate": "0/0",
          "time_base": "1/44100",
          "start_pts": 0,
          "start_time": "0.000000",
          "duration_ts": 660442,
          "duration": "14.976009",
          "bit_rate": "192587",
          "nb_frames": "646",
          "extradata_size": 5,
          "disposition": {
            "default": 1,
            "dub": 0,
            "original": 0,
            "comment": 0,
            "lyrics": 0,
            "karaoke": 0,
            "forced": 0,
            "hearing_impaired": 0,
            "visual_impaired": 0,
            "clean_effects": 0,
            "attached_pic": 0,
            "timed_thumbnails": 0,
            "non_diegetic": 0,
            "captions": 0,
            "descriptions": 0,
            "metadata": 0,
            "dependent": 0,
            "still_image": 0
          },
          "tags": {
            "language": "und",
            "handler_name": "SoundHandler",
            "vendor_id": "[0][0][0][0]"
          }
        },
        {
          "index": 1,
          "codec_name": "h264",
          "codec_long_name": "H.264 / AVC / MPEG-4 AVC / MPEG-4 part 10",
          "profile": "High",
          "codec_type": "video",
          "codec_tag_string": "avc1",
          "codec_tag": "0x31637661",
          "width": 720,
          "height": 480,
          "coded_width": 720,
          "coded_height": 480,
          "closed_captions": 0,
          "film_grain": 0,
          "has_b_frames": 2,
          "sample_aspect_ratio": "1:1",
          "display_aspect_ratio": "3:2",
          "pix_fmt": "yuv420p",
          "level": 30,
          "color_range": "tv",
          "color_space": "bt709",
          "color_transfer": "bt709",
          "color_primaries": "bt709",
          "chroma_location": "left",
          "field_order": "progressive",
          "refs": 1,
          "is_avc": "true",
          "nal_length_size": "4",
          "id": "0x2",
          "r_frame_rate": "30/1",
          "avg_frame_rate": "30/1",
          "time_base": "1/15360",
          "start_pts": 0,
          "start_time": "0.000000",
          "duration_ts": 229888,
          "duration": "14.966667",
          "bit_rate": "1748880",
          "bits_per_raw_sample": "8",
          "nb_frames": "449",
          "extradata_size": 50,
          "disposition": {
            "default": 1,
            "dub": 0,
            "original": 0,
            "comment": 0,
            "lyrics": 0,
            "karaoke": 0,
            "forced": 0,
            "hearing_impaired": 0,
            "visual_impaired": 0,
            "clean_effects": 0,
            "attached_pic": 0,
            "timed_thumbnails": 0,
            "non_diegetic": 0,
            "captions": 0,
            "descriptions": 0,
            "metadata": 0,
            "dependent": 0,
            "still_image": 0
          },
          "tags": {
            "language": "eng",
            "handler_name": "VideoHandle",
            "vendor_id": "[0][0][0][0]",
            "encoder": "Lavc60.30.102 libx264"
          }
        }
      ],
      "format": {
        "filename": "F:\\MemoryCollectionApp\\server\\middleware\\renderEngine\\finals\\interviews_3_65f138c9336de84ab7cb3ed7.mp4",
        "nb_streams": 2,
        "nb_programs": 0,
        "format_name": "mov,mp4,m4a,3gp,3g2,mj2",
        "format_long_name": "QuickTime / MOV",
        "start_time": "0.000000",
        "duration": "14.976009",
        "size": "3650517",
        "bit_rate": "1950061",
        "probe_score": 100,
        "tags": {
          "major_brand": "isom",
          "minor_version": "512",
          "compatible_brands": "isomiso2avc1mp41",
          "encoder": "Lavf60.15.101"
        }
      }
    }
  },
  {
    "filePath": "F:\\MemoryCollectionApp\\server\\middleware\\renderEngine\\finals\\montage_2_65f138c9336de84ab7cb3ed7.mp4",
    "metadata": {
      "streams": [
        {
          "index": 0,
          "codec_name": "h264",
          "codec_long_name": "H.264 / AVC / MPEG-4 AVC / MPEG-4 part 10",
          "profile": "High",
          "codec_type": "video",
          "codec_tag_string": "avc1",
          "codec_tag": "0x31637661",
          "width": 720,
          "height": 480,
          "coded_width": 720,
          "coded_height": 480,
          "closed_captions": 0,
          "film_grain": 0,
          "has_b_frames": 2,
          "sample_aspect_ratio": "1:1",
          "display_aspect_ratio": "3:2",
          "pix_fmt": "yuv420p",
          "level": 30,
          "color_range": "tv",
          "color_space": "bt709",
          "color_transfer": "bt709",
          "color_primaries": "bt709",
          "chroma_location": "left",
          "field_order": "progressive",
          "refs": 1,
          "is_avc": "true",
          "nal_length_size": "4",
          "id": "0x1",
          "r_frame_rate": "30/1",
          "avg_frame_rate": "30/1",
          "time_base": "1/15360",
          "start_pts": 0,
          "start_time": "0.000000",
          "duration_ts": 184320,
          "duration": "12.000000",
          "bit_rate": "3334743",
          "bits_per_raw_sample": "8",
          "nb_frames": "360",
          "extradata_size": 50,
          "disposition": {
            "default": 1,
            "dub": 0,
            "original": 0,
            "comment": 0,
            "lyrics": 0,
            "karaoke": 0,
            "forced": 0,
            "hearing_impaired": 0,
            "visual_impaired": 0,
            "clean_effects": 0,
            "attached_pic": 0,
            "timed_thumbnails": 0,
            "non_diegetic": 0,
            "captions": 0,
            "descriptions": 0,
            "metadata": 0,
            "dependent": 0,
            "still_image": 0
          },
          "tags": {
            "language": "und",
            "handler_name": "VideoHandler",
            "vendor_id": "[0][0][0][0]",
            "encoder": "Lavc60.30.102 libx264"
          }
        },
        {
          "index": 1,
          "codec_name": "aac",
          "codec_long_name": "AAC (Advanced Audio Coding)",
          "profile": "LC",
          "codec_type": "audio",
          "codec_tag_string": "mp4a",
          "codec_tag": "0x6134706d",
          "sample_fmt": "fltp",
          "sample_rate": "44100",
          "channels": 2,
          "channel_layout": "stereo",
          "bits_per_sample": 0,
          "initial_padding": 0,
          "id": "0x2",
          "r_frame_rate": "0/0",
          "avg_frame_rate": "0/0",
          "time_base": "1/44100",
          "start_pts": 0,
          "start_time": "0.000000",
          "duration_ts": 528362,
          "duration": "11.980998",
          "bit_rate": "194506",
          "nb_frames": "517",
          "extradata_size": 5,
          "disposition": {
            "default": 1,
            "dub": 0,
            "original": 0,
            "comment": 0,
            "lyrics": 0,
            "karaoke": 0,
            "forced": 0,
            "hearing_impaired": 0,
            "visual_impaired": 0,
            "clean_effects": 0,
            "attached_pic": 0,
            "timed_thumbnails": 0,
            "non_diegetic": 0,
            "captions": 0,
            "descriptions": 0,
            "metadata": 0,
            "dependent": 0,
            "still_image": 0
          },
          "tags": {
            "language": "und",
            "handler_name": "SoundHandler",
            "vendor_id": "[0][0][0][0]"
          }
        }
      ],
      "format": {
        "filename": "F:\\MemoryCollectionApp\\server\\middleware\\renderEngine\\finals\\montage_2_65f138c9336de84ab7cb3ed7.mp4",
        "nb_streams": 2,
        "nb_programs": 0,
        "format_name": "mov,mp4,m4a,3gp,3g2,mj2",
        "format_long_name": "QuickTime / MOV",
        "start_time": "0.000000",
        "duration": "12.000000",
        "size": "5308356",
        "bit_rate": "3538904",
        "probe_score": 100,
        "tags": {
          "major_brand": "isom",
          "minor_version": "512",
          "compatible_brands": "isomiso2avc1mp41",
          "encoder": "Lavf60.15.101"
        }
      }
    }
  },
  {
    "filePath": "F:\\MemoryCollectionApp\\server\\middleware\\renderEngine\\finals\\outro_4_65f138c9336de84ab7cb3ed7.mp4",
    "metadata": {
      "streams": [
        {
          "index": 0,
          "codec_name": "h264",
          "codec_long_name": "H.264 / AVC / MPEG-4 AVC / MPEG-4 part 10",
          "profile": "High",
          "codec_type": "video",
          "codec_tag_string": "avc1",
          "codec_tag": "0x31637661",
          "width": 720,
          "height": 480,
          "coded_width": 720,
          "coded_height": 480,
          "closed_captions": 0,
          "film_grain": 0,
          "has_b_frames": 2,
          "sample_aspect_ratio": "1:1",
          "display_aspect_ratio": "3:2",
          "pix_fmt": "yuv420p",
          "level": 30,
          "color_range": "tv",
          "color_space": "bt709",
          "color_transfer": "bt709",
          "color_primaries": "bt709",
          "chroma_location": "left",
          "field_order": "progressive",
          "refs": 1,
          "is_avc": "true",
          "nal_length_size": "4",
          "id": "0x1",
          "r_frame_rate": "30/1",
          "avg_frame_rate": "30/1",
          "time_base": "1/15360",
          "start_pts": 0,
          "start_time": "0.000000",
          "duration_ts": 73728,
          "duration": "4.800000",
          "bit_rate": "2333778",
          "bits_per_raw_sample": "8",
          "nb_frames": "144",
          "extradata_size": 50,
          "disposition": {
            "default": 1,
            "dub": 0,
            "original": 0,
            "comment": 0,
            "lyrics": 0,
            "karaoke": 0,
            "forced": 0,
            "hearing_impaired": 0,
            "visual_impaired": 0,
            "clean_effects": 0,
            "attached_pic": 0,
            "timed_thumbnails": 0,
            "non_diegetic": 0,
            "captions": 0,
            "descriptions": 0,
            "metadata": 0,
            "dependent": 0,
            "still_image": 0
          },
          "tags": {
            "language": "eng",
            "handler_name": "VideoHandle",
            "vendor_id": "[0][0][0][0]",
            "encoder": "Lavc60.30.102 libx264"
          }
        },
        {
          "index": 1,
          "codec_name": "aac",
          "codec_long_name": "AAC (Advanced Audio Coding)",
          "profile": "LC",
          "codec_type": "audio",
          "codec_tag_string": "mp4a",
          "codec_tag": "0x6134706d",
          "sample_fmt": "fltp",
          "sample_rate": "44100",
          "channels": 2,
          "channel_layout": "stereo",
          "bits_per_sample": 0,
          "initial_padding": 0,
          "id": "0x2",
          "r_frame_rate": "0/0",
          "avg_frame_rate": "0/0",
          "time_base": "1/44100",
          "start_pts": 0,
          "start_time": "0.000000",
          "duration_ts": 210930,
          "duration": "4.782993",
          "bit_rate": "196971",
          "nb_frames": "207",
          "extradata_size": 5,
          "disposition": {
            "default": 1,
            "dub": 0,
            "original": 0,
            "comment": 0,
            "lyrics": 0,
            "karaoke": 0,
            "forced": 0,
            "hearing_impaired": 0,
            "visual_impaired": 0,
            "clean_effects": 0,
            "attached_pic": 0,
            "timed_thumbnails": 0,
            "non_diegetic": 0,
            "captions": 0,
            "descriptions": 0,
            "metadata": 0,
            "dependent": 0,
            "still_image": 0
          },
          "tags": {
            "language": "und",
            "handler_name": "SoundHandler",
            "vendor_id": "[0][0][0][0]"
          }
        }
      ],
      "format": {
        "filename": "F:\\MemoryCollectionApp\\server\\middleware\\renderEngine\\finals\\outro_4_65f138c9336de84ab7cb3ed7.mp4",
        "nb_streams": 2,
        "nb_programs": 0,
        "format_name": "mov,mp4,m4a,3gp,3g2,mj2",
        "format_long_name": "QuickTime / MOV",
        "start_time": "0.000000",
        "duration": "4.800000",
        "size": "1524797",
        "bit_rate": "2541328",
        "probe_score": 100,
        "tags": {
          "major_brand": "isom",
          "minor_version": "512",
          "compatible_brands": "isomiso2avc1mp41",
          "encoder": "Lavf60.15.101"
        }
      }
    }
  },
  {
    "filePath": "F:\\MemoryCollectionApp\\server\\middleware\\renderEngine\\finals\\outro_intermediate_4_65f138c9336de84ab7cb3ed7.mp4",
    "metadata": {
      "streams": [
        {
          "index": 0,
          "codec_name": "h264",
          "codec_long_name": "H.264 / AVC / MPEG-4 AVC / MPEG-4 part 10",
          "profile": "High",
          "codec_type": "video",
          "codec_tag_string": "avc1",
          "codec_tag": "0x31637661",
          "width": 720,
          "height": 480,
          "coded_width": 720,
          "coded_height": 480,
          "closed_captions": 0,
          "film_grain": 0,
          "has_b_frames": 2,
          "sample_aspect_ratio": "1:1",
          "display_aspect_ratio": "3:2",
          "pix_fmt": "yuv420p",
          "level": 30,
          "color_range": "tv",
          "color_space": "bt709",
          "color_transfer": "bt709",
          "color_primaries": "bt709",
          "chroma_location": "left",
          "field_order": "progressive",
          "refs": 1,
          "is_avc": "true",
          "nal_length_size": "4",
          "id": "0x1",
          "r_frame_rate": "30/1",
          "avg_frame_rate": "30/1",
          "time_base": "1/15360",
          "start_pts": 0,
          "start_time": "0.000000",
          "duration_ts": 73728,
          "duration": "4.800000",
          "bit_rate": "2314168",
          "bits_per_raw_sample": "8",
          "nb_frames": "144",
          "extradata_size": 50,
          "disposition": {
            "default": 1,
            "dub": 0,
            "original": 0,
            "comment": 0,
            "lyrics": 0,
            "karaoke": 0,
            "forced": 0,
            "hearing_impaired": 0,
            "visual_impaired": 0,
            "clean_effects": 0,
            "attached_pic": 0,
            "timed_thumbnails": 0,
            "non_diegetic": 0,
            "captions": 0,
            "descriptions": 0,
            "metadata": 0,
            "dependent": 0,
            "still_image": 0
          },
          "tags": {
            "language": "eng",
            "handler_name": "VideoHandle",
            "vendor_id": "[0][0][0][0]",
            "encoder": "Lavc60.30.102 libx264"
          }
        },
        {
          "index": 1,
          "codec_name": "aac",
          "codec_long_name": "AAC (Advanced Audio Coding)",
          "profile": "LC",
          "codec_type": "audio",
          "codec_tag_string": "mp4a",
          "codec_tag": "0x6134706d",
          "sample_fmt": "fltp",
          "sample_rate": "44100",
          "channels": 2,
          "channel_layout": "stereo",
          "bits_per_sample": 0,
          "initial_padding": 0,
          "id": "0x2",
          "r_frame_rate": "0/0",
          "avg_frame_rate": "0/0",
          "time_base": "1/44100",
          "start_pts": 0,
          "start_time": "0.000000",
          "duration_ts": 210930,
          "duration": "4.782993",
          "bit_rate": "196958",
          "nb_frames": "207",
          "extradata_size": 5,
          "disposition": {
            "default": 1,
            "dub": 0,
            "original": 0,
            "comment": 0,
            "lyrics": 0,
            "karaoke": 0,
            "forced": 0,
            "hearing_impaired": 0,
            "visual_impaired": 0,
            "clean_effects": 0,
            "attached_pic": 0,
            "timed_thumbnails": 0,
            "non_diegetic": 0,
            "captions": 0,
            "descriptions": 0,
            "metadata": 0,
            "dependent": 0,
            "still_image": 0
          },
          "tags": {
            "language": "und",
            "handler_name": "SoundHandler",
            "vendor_id": "[0][0][0][0]"
          }
        }
      ],
      "format": {
        "filename": "F:\\MemoryCollectionApp\\server\\middleware\\renderEngine\\finals\\outro_intermediate_4_65f138c9336de84ab7cb3ed7.mp4",
        "nb_streams": 2,
        "nb_programs": 0,
        "format_name": "mov,mp4,m4a,3gp,3g2,mj2",
        "format_long_name": "QuickTime / MOV",
        "start_time": "0.000000",
        "duration": "4.800000",
        "size": "1512959",
        "bit_rate": "2521598",
        "probe_score": 100,
        "tags": {
          "major_brand": "isom",
          "minor_version": "512",
          "compatible_brands": "isomiso2avc1mp41",
          "encoder": "Lavf60.15.101"
        }
      }
    }
  },
  {
    "filePath": "F:\\MemoryCollectionApp\\server\\middleware\\renderEngine\\finals\\title_0_65f138c9336de84ab7cb3ed7.mp4",
    "metadata": {
      "streams": [
        {
          "index": 0,
          "codec_name": "h264",
          "codec_long_name": "H.264 / AVC / MPEG-4 AVC / MPEG-4 part 10",
          "profile": "High",
          "codec_type": "video",
          "codec_tag_string": "avc1",
          "codec_tag": "0x31637661",
          "width": 720,
          "height": 480,
          "coded_width": 720,
          "coded_height": 480,
          "closed_captions": 0,
          "film_grain": 0,
          "has_b_frames": 2,
          "sample_aspect_ratio": "1:1",
          "display_aspect_ratio": "3:2",
          "pix_fmt": "yuv420p",
          "level": 30,
          "color_range": "tv",
          "color_space": "bt709",
          "color_transfer": "bt709",
          "color_primaries": "bt709",
          "chroma_location": "left",
          "field_order": "progressive",
          "refs": 1,
          "is_avc": "true",
          "nal_length_size": "4",
          "id": "0x1",
          "r_frame_rate": "30/1",
          "avg_frame_rate": "30/1",
          "time_base": "1/15360",
          "start_pts": 0,
          "start_time": "0.000000",
          "duration_ts": 76800,
          "duration": "5.000000",
          "bit_rate": "1671804",
          "bits_per_raw_sample": "8",
          "nb_frames": "150",
          "extradata_size": 50,
          "disposition": {
            "default": 1,
            "dub": 0,
            "original": 0,
            "comment": 0,
            "lyrics": 0,
            "karaoke": 0,
            "forced": 0,
            "hearing_impaired": 0,
            "visual_impaired": 0,
            "clean_effects": 0,
            "attached_pic": 0,
            "timed_thumbnails": 0,
            "non_diegetic": 0,
            "captions": 0,
            "descriptions": 0,
            "metadata": 0,
            "dependent": 0,
            "still_image": 0
          },
          "tags": {
            "language": "und",
            "handler_name": "VideoHandler",
            "vendor_id": "[0][0][0][0]",
            "encoder": "Lavc60.30.102 libx264"
          }
        },
        {
          "index": 1,
          "codec_name": "aac",
          "codec_long_name": "AAC (Advanced Audio Coding)",
          "profile": "LC",
          "codec_type": "audio",
          "codec_tag_string": "mp4a",
          "codec_tag": "0x6134706d",
          "sample_fmt": "fltp",
          "sample_rate": "44100",
          "channels": 2,
          "channel_layout": "stereo",
          "bits_per_sample": 0,
          "initial_padding": 0,
          "id": "0x2",
          "r_frame_rate": "0/0",
          "avg_frame_rate": "0/0",
          "time_base": "1/44100",
          "start_pts": 0,
          "start_time": "0.000000",
          "duration_ts": 220147,
          "duration": "4.991995",
          "bit_rate": "128090",
          "nb_frames": "216",
          "extradata_size": 5,
          "disposition": {
            "default": 1,
            "dub": 0,
            "original": 0,
            "comment": 0,
            "lyrics": 0,
            "karaoke": 0,
            "forced": 0,
            "hearing_impaired": 0,
            "visual_impaired": 0,
            "clean_effects": 0,
            "attached_pic": 0,
            "timed_thumbnails": 0,
            "non_diegetic": 0,
            "captions": 0,
            "descriptions": 0,
            "metadata": 0,
            "dependent": 0,
            "still_image": 0
          },
          "tags": {
            "language": "und",
            "handler_name": "SoundHandler",
            "vendor_id": "[0][0][0][0]"
          }
        }
      ],
      "format": {
        "filename": "F:\\MemoryCollectionApp\\server\\middleware\\renderEngine\\finals\\title_0_65f138c9336de84ab7cb3ed7.mp4",
        "nb_streams": 2,
        "nb_programs": 0,
        "format_name": "mov,mp4,m4a,3gp,3g2,mj2",
        "format_long_name": "QuickTime / MOV",
        "start_time": "0.000000",
        "duration": "5.000000",
        "size": "1131973",
        "bit_rate": "1811156",
        "probe_score": 100,
        "tags": {
          "major_brand": "isom",
          "minor_version": "512",
          "compatible_brands": "isomiso2avc1mp41",
          "encoder": "Lavf60.15.101"
        }
      }
    }
  }
]